<?xml version="1.0" encoding="utf-8"?>
<!-- Generator: Adobe Illustrator 15.1.0, SVG Export Plug-In . SVG Version: 6.00 Build 0)  -->
<!DOCTYPE svg PUBLIC "-//W3C//DTD SVG 1.1//EN" "http://www.w3.org/Graphics/SVG/1.1/DTD/svg11.dtd">
<svg version="1.1" id="Layer_1" xmlns="http://www.w3.org/2000/svg" xmlns:xlink="http://www.w3.org/1999/xlink" x="0px" y="0px"
	 width="800px" height="600px" viewBox="0 0 800 600" enable-background="new 0 0 800 600" xml:space="preserve">
<g>
	<path fill="#FFFFFF" d="M200.498,360.098c0.402,2.927-0.341,5.806-2.147,8.172c-1.756,2.366-4.342,3.879-7.257,4.318
		c-2.927,0.365-5.818-0.391-8.172-2.147c-4.867-3.659-5.806-10.587-2.135-15.417c1.756-2.391,4.342-3.903,7.233-4.293
		c0.562-0.073,1.049-0.098,1.574-0.098c2.354,0,4.684,0.731,6.623,2.195C198.546,354.633,200.083,357.17,200.498,360.098
		 M121.618,245.931c-1.793,2.366-4.378,3.867-7.306,4.269c-2.927,0.415-5.806-0.329-8.172-2.098c-4.83-3.671-5.806-10.6-2.135-15.43
		c1.769-2.366,4.354-3.903,7.233-4.306c0.561-0.085,1.049-0.122,1.573-0.122c2.403,0,4.684,0.793,6.635,2.257
		c2.317,1.756,3.854,4.342,4.269,7.27C124.13,240.65,123.375,243.577,121.618,245.931 M237.406,271.265
		c-5.623,0-10.868,1.878-15.063,5.062l-31.627-38.824c0.073-0.11,0.183-0.22,0.293-0.378c1.988-2.659,1.463-6.44-1.159-8.429
		c-2.659-2.024-6.44-1.463-8.465,1.159c-1.988,2.659-1.463,6.452,1.159,8.477c1.988,1.451,4.574,1.573,6.563,0.451l31.664,38.812
		c-2.33,2.062-4.196,4.538-5.66,7.306l-89.967-41.324c0.671-1.952,0.902-4.013,0.598-6.074c-0.488-3.488-2.281-6.55-5.062-8.66
		c-2.769-2.098-6.221-2.988-9.697-2.5c-3.452,0.488-6.525,2.281-8.624,5.05c-4.306,5.77-3.184,13.978,2.586,18.333
		c2.281,1.72,4.989,2.659,7.831,2.659c0.598,0,1.195-0.085,1.842-0.159c3.439-0.488,6.513-2.281,8.611-5.05
		c0.415-0.561,0.756-1.122,1.085-1.769l89.894,41.336c-1.085,2.659-1.756,5.574-1.878,8.611h-76.355
		c-0.269-2.062-1.317-4-3.147-5.391c-3.562-2.659-8.624-1.952-11.319,1.573c-2.732,3.562-1.988,8.575,1.61,11.234
		c3.525,2.708,8.611,1.988,11.282-1.562c0.891-1.171,1.378-2.439,1.574-3.793h76.355c0.122,3.305,0.939,6.403,2.183,9.258
		l-19.345,9.587c-0.817-1.146-2.013-2.024-3.513-2.317c-3.269-0.757-6.489,1.269-7.233,4.537c-0.719,3.22,1.305,6.489,4.525,7.196
		c3.232,0.756,6.489-1.317,7.233-4.537c0.269-1.049,0.195-2.098-0.11-3.074l19.369-9.563c1.61,2.964,3.903,5.587,6.563,7.685
		l-25.139,34.64c-2.708-1.805-5.891-2.561-9.111-2.146c-3.488,0.488-6.513,2.293-8.575,5.099
		c-4.391,5.732-3.232,13.979,2.549,18.271c2.281,1.732,4.977,2.684,7.831,2.684c0.598,0,1.195-0.049,1.83-0.171
		c3.452-0.439,6.525-2.269,8.624-5.05c2.098-2.781,2.988-6.221,2.513-9.66c-0.452-3.049-1.842-5.757-4.05-7.807l25.175-34.688
		c3.976,2.635,8.733,4.099,13.758,4.099c13.856,0,25.102-11.222,25.102-25.09C262.508,282.511,251.263,271.265,237.406,271.265"/>
	<path fill="#FFFFFF" d="M607.288,278.193c-5.074-11.124-16.101-14.344-27.078-12.697c-8.343,1.232-15.368,5.391-21.955,10.38
		c-0.585,0.451-1.146,0.854-1.951,1.464v-10.197h-15.905v80.612h17.467v-2.391c0-17.783-0.049-35.616,0.049-53.412
		c0-0.72,0.146-1.732,0.634-2.135c5.61-4.647,11.66-8.514,19.101-9.258c6.514-0.634,11.734,1.915,13.563,8.538
		c0.78,2.745,1.269,5.66,1.269,8.514c0.171,15.991,0.073,32.042,0.073,48.045v2.122h17.467c0.049-0.61,0.098-1.049,0.098-1.488
		v-54.156C610.118,287.304,609.288,282.621,607.288,278.193 M325.678,332.995c-3.159,1.537-6.452,2.317-10.014,2.22
		c-3.671-0.122-6.099-1.951-6.892-5.562c-0.415-1.684-0.671-3.415-0.671-5.123c-0.037-13.795,0-27.542,0-41.336
		c0-0.671,0.073-1.354,0.11-2.135h2.098c5.318,0,10.721-0.037,16.112,0.037c1.195,0,1.756-0.341,2.098-1.537
		c1.049-3.635,2.281-7.27,3.415-10.868c0.183-0.488,0.256-0.976,0.402-1.646h-2.098c-6.818,0-13.6-0.037-20.418,0.036
		c-1.354,0-1.756-0.415-1.756-1.756c0.037-6.672,0.037-13.38,0.037-20.052v-2.244c-6.001,1.83-11.697,3.635-17.54,5.428v2.256
		v76.964c0,1.903,0.037,3.83,0.341,5.685c1.195,7.221,4.977,12.441,12.1,14.832c7.525,2.537,15.027,1.585,22.37-0.659
		c2.695-0.829,5.318-2.098,7.453-2.951c-1.684-4.587-3.22-8.636-4.757-12.783C327.435,332.142,326.532,332.58,325.678,332.995
		 M450.821,333.361c-0.146-0.342-1.049-0.537-1.561-0.488c-1.366,0.195-2.732,0.562-4.05,0.781c-3.366,0.487-5.806-1.22-6.392-4.587
		c-0.195-1.122-0.292-2.269-0.292-3.415v-96.126v-2.513c-0.903,0.305-1.464,0.451-2.099,0.671
		c-4.439,1.659-8.928,3.379-13.417,4.916c-1.536,0.524-2.146,1.195-2.098,2.891c0.049,26.968,0.049,53.949,0.049,80.941
		c0,5.366-0.098,10.831,0,16.197c0.146,8.733,4.83,14.369,13.319,15.979c5.318,1.049,10.685,0.415,15.954-0.634
		c2.928-0.562,5.83-1.586,8.709-2.415c-0.146-0.537-0.146-0.684-0.22-0.781C455.579,341.338,452.529,337.801,450.821,333.361
		 M677.642,326.019c0,1.317-0.39,2.122-1.366,2.951c-4.342,3.562-9.123,6.245-14.929,6.563c-8.124,0.464-13.808-3.439-17.662-10.343
		c-3.391-6.123-3.903-12.771-3.391-19.589c0.487-5.696,1.927-11.015,5.317-15.662c4.367-5.928,10.271-9.001,17.467-9.929
		c4.221-0.524,8.392-0.073,12.515,0.708c1.513,0.269,2.098,0.83,2.049,2.439c-0.049,7.147-0.024,14.308-0.024,21.431
		C677.617,311.748,677.617,318.896,677.642,326.019 M695.182,320.822V229.16v-2.208c-5.489,2.025-10.709,3.964-15.954,5.806
		c-1.293,0.415-1.635,1.085-1.61,2.354c0.024,9.599,0,19.149,0,28.712v2.281c-0.756-0.073-1.195-0.073-1.658-0.146
		c-5.953-1.012-11.905-1.244-17.882-0.305c-11.807,1.842-21.516,7.306-28.395,17.234c-4.977,7.16-7.222,15.174-7.465,23.87
		c-0.244,8.989,1.073,17.649,5.317,25.554c5.807,10.66,14.686,16.856,27.029,17.246c8.66,0.293,16.076-2.854,22.565-8.44
		c0.487-0.414,0.951-0.78,1.609-1.341c0.854,2.391,1.684,4.513,2.391,6.708c0.317,1.024,0.806,1.415,1.952,1.366
		c4.903-0.024,9.88,0,14.881,0c0.365,0,0.756-0.049,1.292-0.146C694.962,339.069,695.182,329.922,695.182,320.822 M388.762,317.651
		c0,2.976,0.073,6.001,0,8.977c0,0.61-0.269,1.415-0.72,1.806c-5.05,4.439-10.794,7.465-17.759,7.196
		c-11.539-0.415-14.234-10.489-11.539-17.613c1.464-3.78,4.574-5.732,8.282-6.672c2.696-0.707,5.501-1.085,8.355-1.269
		c4.342-0.341,8.696-0.414,13.38-0.609V317.651z M406.362,324.872c0-10.002,0.049-20.04-0.036-30.091
		c0-2.281-0.146-4.61-0.366-6.855c-1.171-10.868-7.611-18.552-18.137-21.248c-11.282-2.915-22.406-1.866-33.311,1.952
		c-3.306,1.159-6.489,2.769-9.819,4.232c2.135,4.159,4.123,7.904,6.147,11.807c0.817-0.378,1.342-0.634,1.903-0.939
		c7.306-3.671,14.954-5.623,23.199-4.757c6.44,0.708,11.014,4.452,12.295,10.563c0.488,2.171,0.366,4.464,0.561,6.672
		c0.073,1.049-0.488,1.232-1.354,1.268c-2.513,0.049-4.989,0.232-7.416,0.269c-6.525,0.146-13.039,0.293-19.406,1.83
		c-13.649,3.305-20.845,12.222-20.613,25.566c0.183,13.538,10.526,23.906,24.089,24.467c9.368,0.366,17.467-2.512,24.431-8.659
		c0.415-0.366,0.866-0.659,1.391-1.123c0.561,1.488,1.049,2.806,1.5,4.123c1.415,3.903,1.378,3.903,5.501,3.903h13.271
		c-0.036-0.342,0-0.537-0.073-0.684C406.814,340.094,406.362,332.531,406.362,324.872z M476.144,299.124
		c-1.317-9.965,6.977-20.089,16.734-20.345c5.172-0.183,9.563,1.72,12.733,5.952c3.172,4.232,4.245,9.075,4.538,14.393H476.144z
		 M496.098,265.142c-13.733-0.976-26.395,5.659-32.493,18.088c-6.782,13.832-7.318,28.188-2.195,42.568
		c4.293,11.904,12.831,19.491,25.175,22.443c10.587,2.488,20.955,1.707,31.079-2.025c2.829-1.049,5.537-2.513,8.392-3.83
		c-1.903-4.293-3.635-8.196-5.367-12.197c-0.707,0.342-1.171,0.562-1.61,0.83c-6.537,3.317-13.49,4.83-20.833,4.537
		c-9.44-0.439-17.197-5.928-20.491-14.734c-1.024-2.854-1.683-5.806-1.536-8.965h51.74c0.098-0.439,0.146-0.744,0.195-1.013
		c0.098-6.477-0.195-12.88-1.806-19.21C522.444,276.412,512.223,266.228,496.098,265.142z"/>
</g>
</svg>
