<svg xmlns="http://www.w3.org/2000/svg" viewBox="0 0 16 16"><g fill="none" fill-rule="evenodd"><path fill="#82BC41" d="M2.689 9.573a.295.295 0 0 1-.251.333.294.294 0 1 1-.04-.586.294.294 0 0 1 .291.253M.584 6.526a.295.295 0 1 1-.47-.356.295.295 0 0 1 .47.356m3.09.676c-.15 0-.29.05-.402.135l-.844-1.036.008-.01a.162.162 0 0 0-.031-.225.162.162 0 0 0-.226.031.163.163 0 0 0 .031.226.162.162 0 0 0 .175.012l.845 1.036a.686.686 0 0 0-.151.195L.678 6.463a.348.348 0 0 0-.608-.325.35.35 0 0 0 .278.56c.016 0 .032-.002.049-.004a.348.348 0 0 0 .259-.182l2.399 1.103a.676.676 0 0 0-.05.23H.967a.213.213 0 0 0-.084-.144.217.217 0 0 0-.302.042.211.211 0 0 0 .043.3.214.214 0 0 0 .343-.143h2.038a.677.677 0 0 0 .058.247l-.516.256a.15.15 0 0 0-.094-.062.16.16 0 1 0 .121.192.152.152 0 0 0-.003-.082l.517-.255a.675.675 0 0 0 .175.205l-.671.924a.354.354 0 0 0-.243-.057.339.339 0 0 0-.229.136.347.347 0 0 0 .277.56.344.344 0 0 0 .279-.139.351.351 0 0 0-.041-.466l.672-.927a.67.67 0 1 0 .367-1.23"/><path fill="#0575C1" d="M13.546 7.387c-.135-.297-.43-.383-.723-.339-.223.033-.41.144-.587.277l-.052.04v-.273h-.423v2.151h.466V9.18c0-.475-.002-.95 0-1.426 0-.019.005-.046.018-.057.15-.124.31-.227.51-.247.173-.017.313.051.361.228a.832.832 0 0 1 .034.227c.005.427.002.855.002 1.282v.057h.466l.003-.04V7.76a.898.898 0 0 0-.075-.372M6.03 8.85a.558.558 0 0 1-.267.059c-.098-.003-.163-.052-.184-.148a.579.579 0 0 1-.018-.137V7.52l.003-.057h.486c.032 0 .047-.008.056-.04.028-.097.06-.194.09-.29.006-.013.008-.026.012-.044h-.601c-.036 0-.047-.01-.047-.046v-.595l-.467.145v2.114c0 .05 0 .102.009.152.032.193.133.332.323.396.2.067.4.042.597-.018.072-.022.142-.056.199-.08l-.127-.34a1.9 1.9 0 0 1-.064.032m3.34.01c-.004-.01-.028-.015-.042-.014-.036.005-.072.015-.108.021-.09.013-.155-.033-.17-.122a.562.562 0 0 1-.008-.092V6.021l-.056.018c-.12.044-.238.09-.358.131-.041.014-.057.032-.056.077V8.84c.005.233.13.383.357.426.142.028.285.011.425-.017.079-.015.156-.042.233-.064-.004-.015-.004-.019-.006-.02a.992.992 0 0 1-.211-.306m6.053-.196a.093.093 0 0 1-.037.08.685.685 0 0 1-.398.174c-.217.012-.369-.092-.47-.276-.092-.164-.106-.34-.092-.523a.8.8 0 0 1 .142-.418.654.654 0 0 1 .466-.265 1.04 1.04 0 0 1 .334.02c.04.006.056.021.055.064-.002.191 0 .382 0 .572v.572m.468-.139V6.02c-.147.054-.286.106-.426.155-.034.011-.044.03-.043.063v.827l-.044-.004a1.469 1.469 0 0 0-.477-.008 1.083 1.083 0 0 0-.758.46 1.137 1.137 0 0 0-.199.637c-.007.24.028.471.142.682.154.284.391.45.721.46a.854.854 0 0 0 .602-.225l.043-.036c.023.064.045.121.064.18.008.027.021.037.052.036h.397c.01 0 .02-.002.035-.004-.115-.23-.109-.475-.109-.718M7.713 8.44c0 .08.002.16 0 .24 0 .016-.007.038-.019.048-.135.119-.288.199-.474.192-.308-.011-.38-.28-.308-.47.04-.101.122-.153.221-.178.072-.02.147-.03.223-.034.116-.01.232-.011.357-.016v.218zm.47.193V7.83a2.22 2.22 0 0 0-.01-.183.62.62 0 0 0-.485-.567 1.5 1.5 0 0 0-.889.052c-.088.03-.173.074-.262.113l.164.315a.83.83 0 0 0 .051-.025 1.1 1.1 0 0 1 .62-.127c.171.019.293.119.327.282.013.058.01.119.015.178.002.028-.013.033-.036.034-.067 0-.133.006-.198.007a2.432 2.432 0 0 0-.518.049c-.364.088-.556.326-.55.682a.656.656 0 0 0 .643.653c.25.01.466-.067.652-.231l.037-.03.04.11c.038.104.037.104.147.104h.354c0-.01 0-.014-.002-.018-.088-.19-.1-.391-.1-.595zm1.863-.687c-.035-.266.186-.536.447-.543a.387.387 0 0 1 .34.159.68.68 0 0 1 .12.384h-.907zm.533-.907a.876.876 0 0 0-.869.483 1.414 1.414 0 0 0-.058 1.136c.115.318.343.52.673.599.282.066.559.045.829-.054.075-.028.148-.067.223-.102a30.93 30.93 0 0 1-.143-.326 1.106 1.106 0 0 1-.599.143.597.597 0 0 1-.547-.393.62.62 0 0 1-.04-.24h1.38l.005-.026a1.925 1.925 0 0 0-.047-.513c-.104-.406-.377-.678-.807-.707z"/></g></svg>