<svg xmlns="http://www.w3.org/2000/svg" width="800" height="600" viewBox="0 0 800 600"><path d="M200.498 360.098c.402 2.927-.341 5.806-2.147 8.172-1.756 2.366-4.342 3.879-7.257 4.318a11.244 11.244 0 0 1-8.172-2.147c-4.867-3.659-5.806-10.587-2.135-15.417a10.684 10.684 0 0 1 7.233-4.293 11.758 11.758 0 0 1 1.574-.098c2.354 0 4.684.731 6.623 2.195 2.329 1.805 3.866 4.342 4.281 7.27m-78.88-114.167a10.947 10.947 0 0 1-7.306 4.269 10.946 10.946 0 0 1-8.172-2.098c-4.83-3.671-5.806-10.6-2.135-15.43 1.769-2.366 4.354-3.903 7.233-4.306a10.144 10.144 0 0 1 1.573-.122c2.403 0 4.684.793 6.635 2.257a11.026 11.026 0 0 1 4.269 7.27 11.009 11.009 0 0 1-2.097 8.16m115.788 25.334a24.881 24.881 0 0 0-15.063 5.062l-31.627-38.824c.073-.11.183-.22.293-.378 1.988-2.659 1.463-6.44-1.159-8.429-2.659-2.024-6.44-1.463-8.465 1.159-1.988 2.659-1.463 6.452 1.159 8.477 1.988 1.451 4.574 1.573 6.563.451l31.664 38.812c-2.33 2.062-4.196 4.538-5.66 7.306l-89.967-41.324c.671-1.952.902-4.013.598-6.074-.488-3.488-2.281-6.55-5.062-8.66-2.769-2.098-6.221-2.988-9.697-2.5-3.452.488-6.525 2.281-8.624 5.05-4.306 5.77-3.184 13.978 2.586 18.333 2.281 1.72 4.989 2.659 7.831 2.659.598 0 1.195-.085 1.842-.159a13.05 13.05 0 0 0 8.611-5.05c.415-.561.756-1.122 1.085-1.769l89.894 41.336a25.536 25.536 0 0 0-1.878 8.611h-76.355c-.269-2.062-1.317-4-3.147-5.391-3.562-2.659-8.624-1.952-11.319 1.573-2.732 3.562-1.988 8.575 1.61 11.234 3.525 2.708 8.611 1.988 11.282-1.562.891-1.171 1.378-2.439 1.574-3.793h76.355c.122 3.305.939 6.403 2.183 9.258l-19.345 9.587c-.817-1.146-2.013-2.024-3.513-2.317a6.005 6.005 0 0 0-7.233 4.537c-.719 3.22 1.305 6.489 4.525 7.196 3.232.756 6.489-1.317 7.233-4.537.269-1.049.195-2.098-.11-3.074l19.369-9.563c1.61 2.964 3.903 5.587 6.563 7.685l-25.139 34.64c-2.708-1.805-5.891-2.561-9.111-2.146-3.488.488-6.513 2.293-8.575 5.099-4.391 5.732-3.232 13.979 2.549 18.271 2.281 1.732 4.977 2.684 7.831 2.684.598 0 1.195-.049 1.83-.171 3.452-.439 6.525-2.269 8.624-5.05a13.003 13.003 0 0 0 2.513-9.66c-.452-3.049-1.842-5.757-4.05-7.807l25.175-34.688c3.976 2.635 8.733 4.099 13.758 4.099 13.856 0 25.102-11.222 25.102-25.09-.001-13.857-11.246-25.103-25.103-25.103m369.882 6.928c-5.074-11.124-16.101-14.344-27.078-12.697-8.343 1.232-15.368 5.391-21.955 10.38-.585.451-1.146.854-1.951 1.464v-10.197h-15.905v80.612h17.467v-2.391c0-17.783-.049-35.616.049-53.412 0-.72.146-1.732.634-2.135 5.61-4.647 11.66-8.514 19.101-9.258 6.514-.634 11.734 1.915 13.563 8.538.78 2.745 1.269 5.66 1.269 8.514.171 15.991.073 32.042.073 48.045v2.122h17.467c.049-.61.098-1.049.098-1.488v-54.156c-.002-4.83-.832-9.513-2.832-13.941m-281.61 54.802c-3.159 1.537-6.452 2.317-10.014 2.22-3.671-.122-6.099-1.951-6.892-5.562-.415-1.684-.671-3.415-.671-5.123-.037-13.795 0-27.542 0-41.336 0-.671.073-1.354.11-2.135h2.098c5.318 0 10.721-.037 16.112.037 1.195 0 1.756-.341 2.098-1.537 1.049-3.635 2.281-7.27 3.415-10.868.183-.488.256-.976.402-1.646h-2.098c-6.818 0-13.6-.037-20.418.036-1.354 0-1.756-.415-1.756-1.756.037-6.672.037-13.38.037-20.052v-2.244c-6.001 1.83-11.697 3.635-17.54 5.428v79.22c0 1.903.037 3.83.341 5.685 1.195 7.221 4.977 12.441 12.1 14.832 7.525 2.537 15.027 1.585 22.37-.659 2.695-.829 5.318-2.098 7.453-2.951-1.684-4.587-3.22-8.636-4.757-12.783-.633.341-1.536.779-2.39 1.194m125.143.366c-.146-.342-1.049-.537-1.561-.488-1.366.195-2.732.562-4.05.781-3.366.487-5.806-1.22-6.392-4.587a19.981 19.981 0 0 1-.292-3.415v-98.639c-.903.305-1.464.451-2.099.671-4.439 1.659-8.928 3.379-13.417 4.916-1.536.524-2.146 1.195-2.098 2.891.049 26.968.049 53.949.049 80.941 0 5.366-.098 10.831 0 16.197.146 8.733 4.83 14.369 13.319 15.979 5.318 1.049 10.685.415 15.954-.634 2.928-.562 5.83-1.586 8.709-2.415-.146-.537-.146-.684-.22-.781-3.144-3.44-6.194-6.977-7.902-11.417m226.821-7.342c0 1.317-.39 2.122-1.366 2.951-4.342 3.562-9.123 6.245-14.929 6.563-8.124.464-13.808-3.439-17.662-10.343-3.391-6.123-3.903-12.771-3.391-19.589.487-5.696 1.927-11.015 5.317-15.662 4.367-5.928 10.271-9.001 17.467-9.929 4.221-.524 8.392-.073 12.515.708 1.513.269 2.098.83 2.049 2.439-.049 7.147-.024 14.308-.024 21.431-.001 7.16-.001 14.308.024 21.431m17.54-5.197v-93.87c-5.489 2.025-10.709 3.964-15.954 5.806-1.293.415-1.635 1.085-1.61 2.354.024 9.599 0 19.149 0 28.712v2.281c-.756-.073-1.195-.073-1.658-.146-5.953-1.012-11.905-1.244-17.882-.305-11.807 1.842-21.516 7.306-28.395 17.234-4.977 7.16-7.222 15.174-7.465 23.87-.244 8.989 1.073 17.649 5.317 25.554 5.807 10.66 14.686 16.856 27.029 17.246 8.66.293 16.076-2.854 22.565-8.44.487-.414.951-.78 1.609-1.341.854 2.391 1.684 4.513 2.391 6.708.317 1.024.806 1.415 1.952 1.366 4.903-.024 9.88 0 14.881 0 .365 0 .756-.049 1.292-.146-4.292-8.636-4.072-17.783-4.072-26.883m-306.42-3.171c0 2.976.073 6.001 0 8.977 0 .61-.269 1.415-.72 1.806-5.05 4.439-10.794 7.465-17.759 7.196-11.539-.415-14.234-10.489-11.539-17.613 1.464-3.78 4.574-5.732 8.282-6.672 2.696-.707 5.501-1.085 8.355-1.269 4.342-.341 8.696-.414 13.38-.609v8.184zm17.6 7.221c0-10.002.049-20.04-.036-30.091 0-2.281-.146-4.61-.366-6.855-1.171-10.868-7.611-18.552-18.137-21.248-11.282-2.915-22.406-1.866-33.311 1.952-3.306 1.159-6.489 2.769-9.819 4.232 2.135 4.159 4.123 7.904 6.147 11.807a31.133 31.133 0 0 0 1.903-.939c7.306-3.671 14.954-5.623 23.199-4.757 6.44.708 11.014 4.452 12.295 10.563.488 2.171.366 4.464.561 6.672.073 1.049-.488 1.232-1.354 1.268-2.513.049-4.989.232-7.416.269-6.525.146-13.039.293-19.406 1.83-13.649 3.305-20.845 12.222-20.613 25.566.183 13.538 10.526 23.906 24.089 24.467 9.368.366 17.467-2.512 24.431-8.659.415-.366.866-.659 1.391-1.123a142.721 142.721 0 0 1 1.5 4.123c1.415 3.903 1.378 3.903 5.501 3.903h13.271c-.036-.342 0-.537-.073-.684-3.305-7.074-3.757-14.637-3.757-22.296zm69.782-25.748c-1.317-9.965 6.977-20.089 16.734-20.345 5.172-.183 9.563 1.72 12.733 5.952 3.172 4.232 4.245 9.075 4.538 14.393h-34.005zm19.954-33.982c-13.733-.976-26.395 5.659-32.493 18.088-6.782 13.832-7.318 28.188-2.195 42.568 4.293 11.904 12.831 19.491 25.175 22.443 10.587 2.488 20.955 1.707 31.079-2.025 2.829-1.049 5.537-2.513 8.392-3.83-1.903-4.293-3.635-8.196-5.367-12.197-.707.342-1.171.562-1.61.83-6.537 3.317-13.49 4.83-20.833 4.537-9.44-.439-17.197-5.928-20.491-14.734-1.024-2.854-1.683-5.806-1.536-8.965h51.74c.098-.439.146-.744.195-1.013.098-6.477-.195-12.88-1.806-19.21-3.904-15.222-14.125-25.406-30.25-26.492z" fill="#FFF"/></svg>